<?xml version="1.0" encoding="utf-8"?>
<!-- Generator: Adobe Illustrator 15.0.0, SVG Export Plug-In . SVG Version: 6.00 Build 0)  -->
<!DOCTYPE svg PUBLIC "-//W3C//DTD SVG 1.1//EN" "http://www.w3.org/Graphics/SVG/1.1/DTD/svg11.dtd">
<svg version="1.1" id="Laag_1" xmlns="http://www.w3.org/2000/svg" xmlns:xlink="http://www.w3.org/1999/xlink" x="0px" y="0px"
	 width="50px" height="50px" viewBox="0 0 50 50" enable-background="new 0 0 50 50" xml:space="preserve">
<g id="USA">
	<circle fill="#B22234" cx="25" cy="25" r="24.494"/>
	<path fill="#FFFFFF" d="M6.779,8.67c-2.113,2.356-3.771,5.118-4.85,8.164H48.07c-1.077-3.046-2.734-5.808-4.85-8.164H6.779z"/>
	<path fill="#FFFFFF" d="M1.929,33.164H48.07c0.906-2.555,1.425-5.297,1.425-8.165H0.505C0.505,27.867,1.025,30.609,1.929,33.164z"
		/>
	<path fill="#FFFFFF" d="M25,49.494c7.246,0,13.736-3.164,18.223-8.164H6.779C11.263,46.33,17.753,49.494,25,49.494z"/>
	<path fill="#3C3B6E" d="M24.997,0.505C11.47,0.508,0.505,11.473,0.505,25h24.492V0.505z"/>
	<g>
		<g>
			<defs>
				<circle id="SVGID_1_" cx="25" cy="25" r="24.494"/>
			</defs>
			<clipPath id="SVGID_2_">
				<use xlink:href="#SVGID_1_"  overflow="visible"/>
			</clipPath>
			<g clip-path="url(#SVGID_2_)">
				<g>
					<g>
						<g>
							<g>
								<g>
									<g>
										<g>
											<g>
												<g>
													<g id="s5_4_">
														<g id="s4_8_">
															<g>
																<path id="s_39_" fill="#FFFFFF" d="M4.832,4.587l1.92,5.908L1.727,6.842h6.21L2.91,10.496L4.832,4.587z"/>
															</g>
														</g>
														<g>
															<path id="s_40_" fill="#FFFFFF" d="M4.832,16.018l1.92,5.909l-5.025-3.65h6.21l-5.027,3.65L4.832,16.018z"/>
														</g>
													</g>
													<g id="s9_4_">
														<g id="s4_9_">
															<g>
																<path id="s_43_" fill="#FFFFFF" d="M11.553-1.129l1.92,5.91L8.447,1.13h6.213L9.634,4.78L11.553-1.129z"/>
															</g>
															<g>
																<path id="s_44_" fill="#FFFFFF" d="M11.553,10.303l1.92,5.906l-5.026-3.648h6.213l-5.026,3.648L11.553,10.303z"/>
															</g>
														</g>
													</g>
													<g>
														<g id="s5_5_">
															<g id="s4_10_">
																<g>
																	<path id="s_48_" fill="#FFFFFF" d="M18.277,4.587l1.92,5.908l-5.025-3.653h6.211l-5.027,3.653L18.277,4.587z"/>
																</g>
															</g>
															<g>
																<path id="s_49_" fill="#FFFFFF" d="M18.277,16.018l1.92,5.909l-5.025-3.65h6.211l-5.027,3.65L18.277,16.018z"/>
															</g>
														</g>
													</g>
												</g>
											</g>
										</g>
									</g>
								</g>
							</g>
						</g>
					</g>
				</g>
			</g>
		</g>
	</g>
</g>
<g>
	<g>
		<g>
			<g>
				<defs>
					<circle id="SVGID_3_" cx="25" cy="25" r="24.5"/>
				</defs>
				<clipPath id="SVGID_4_">
					<use xlink:href="#SVGID_3_"  overflow="visible"/>
				</clipPath>
				
					<radialGradient id="circle50_2_" cx="750.7598" cy="1657.9609" r="27.4688" gradientTransform="matrix(1 0 0 1 -725.7598 -1632.9609)" gradientUnits="userSpaceOnUse">
					<stop  offset="0" style="stop-color:#000000;stop-opacity:0"/>
					<stop  offset="0.7576" style="stop-color:#000000;stop-opacity:0"/>
					<stop  offset="1" style="stop-color:#000000"/>
				</radialGradient>
				
					<circle id="circle50_1_" opacity="0.4" clip-path="url(#SVGID_4_)" fill="url(#circle50_2_)" enable-background="new    " cx="25" cy="25" r="27.469"/>
			</g>
		</g>
	</g>
	<g>
		<g>
			<g>
				<defs>
					<circle id="SVGID_5_" cx="25" cy="25" r="24.5"/>
				</defs>
				<clipPath id="SVGID_6_">
					<use xlink:href="#SVGID_5_"  overflow="visible"/>
				</clipPath>
				
					<radialGradient id="circle50_3_" cx="750.7598" cy="1657.9609" r="31.6777" gradientTransform="matrix(1 0 0 1 -725.7598 -1632.9609)" gradientUnits="userSpaceOnUse">
					<stop  offset="0" style="stop-color:#000000;stop-opacity:0"/>
					<stop  offset="0.5758" style="stop-color:#000000;stop-opacity:0"/>
					<stop  offset="1" style="stop-color:#000000"/>
				</radialGradient>
				
					<circle id="circle50_7_" opacity="0.6" clip-path="url(#SVGID_6_)" fill="url(#circle50_3_)" enable-background="new    " cx="25" cy="25" r="31.678"/>
			</g>
		</g>
	</g>
</g>
<linearGradient id="SVGID_7_" gradientUnits="userSpaceOnUse" x1="750.4824" y1="1663.666" x2="750.4824" y2="1635.6641" gradientTransform="matrix(1 0 0 1 -725.7598 -1632.9609)">
	<stop  offset="0.0727" style="stop-color:#FFFFFF;stop-opacity:0.05"/>
	<stop  offset="0.897" style="stop-color:#FFFFFF;stop-opacity:0.75"/>
	<stop  offset="1" style="stop-color:#FFFFFF;stop-opacity:0.75"/>
</linearGradient>
<ellipse fill="url(#SVGID_7_)" cx="24.723" cy="16.704" rx="17.306" ry="14.001"/>
</svg>
