<?xml version="1.0" encoding="utf-8"?>
<!-- Generator: Adobe Illustrator 15.0.0, SVG Export Plug-In . SVG Version: 6.00 Build 0)  -->
<!DOCTYPE svg PUBLIC "-//W3C//DTD SVG 1.1//EN" "http://www.w3.org/Graphics/SVG/1.1/DTD/svg11.dtd">
<svg version="1.1" id="Laag_1" xmlns="http://www.w3.org/2000/svg" xmlns:xlink="http://www.w3.org/1999/xlink" x="0px" y="0px"
	 width="50px" height="50px" viewBox="0 0 50 50" enable-background="new 0 0 50 50" xml:space="preserve">
<g id="Brazil_1_">
	<circle fill="#009B3A" cx="25" cy="25" r="24.438"/>
	<path id="C_39_" fill="#FFFFFF" d="M20.959,30.742l0.098,0.385l-0.334-0.213l-0.338,0.213l0.103-0.385l-0.305-0.252l0.394-0.025
		l0.146-0.367l0.146,0.367l0.396,0.025L20.959,30.742z"/>
	<path fill="#FFFFFF" d="M17.775,27.664l0.1,0.386l-0.335-0.212l-0.335,0.212l0.099-0.386l-0.306-0.25l0.396-0.025l0.146-0.367
		l0.146,0.367l0.396,0.025L17.775,27.664z"/>
	<path id="D_7_" fill="#FFFFFF" d="M16.94,23.427l0.097,0.384l-0.338-0.213l-0.333,0.213l0.099-0.384l-0.306-0.251l0.396-0.026
		l0.144-0.368l0.146,0.368l0.396,0.026L16.94,23.427z"/>
	<path fill="#FEE000" d="M49.195,25.002L25.002,40.451L0.805,25.002L25.002,9.551L49.195,25.002z"/>
	<path fill="#002277" d="M25,14.798c5.633,0.002,10.2,4.569,10.201,10.204C35.2,30.635,30.633,35.201,25,35.204
		c-5.636-0.001-10.203-4.568-10.205-10.202C14.797,19.367,19.364,14.799,25,14.798z"/>
	<polygon fill="#FFFFFF" points="28.355,21.54 28.454,21.923 28.122,21.711 27.786,21.923 27.883,21.54 27.577,21.286 
		27.977,21.262 28.122,20.893 28.268,21.262 28.661,21.286 	"/>
	<polygon fill="#FFFFFF" points="27.563,24.451 27.631,24.725 27.393,24.573 27.148,24.725 27.223,24.451 27.003,24.27 
		27.283,24.252 27.393,23.987 27.494,24.252 27.783,24.27 	"/>
	<path id="D_6_" fill="#FFFFFF" d="M16.94,23.427l0.097,0.384l-0.338-0.213l-0.333,0.213l0.099-0.384l-0.306-0.251l0.396-0.026
		l0.144-0.368l0.146,0.368l0.396,0.026L16.94,23.427z"/>
	<polygon fill="#FFFFFF" points="21.221,25.499 21.3,25.822 21.02,25.643 20.737,25.822 20.818,25.499 20.561,25.285 20.896,25.266 
		21.02,24.953 21.144,25.266 21.478,25.285 	"/>
	<polygon fill="#FFFFFF" points="18.602,26.954 18.653,27.162 18.475,27.046 18.296,27.162 18.347,26.954 18.185,26.818 
		18.397,26.805 18.476,26.605 18.554,26.805 18.768,26.818 	"/>
	<polygon fill="#FFFFFF" points="17.775,27.666 17.875,28.05 17.54,27.838 17.205,28.05 17.304,27.666 16.998,27.414 17.395,27.389 
		17.54,27.021 17.687,27.389 18.082,27.414 	"/>
	<polygon fill="#FFFFFF" points="16.672,28.531 16.755,28.857 16.472,28.678 16.194,28.857 16.273,28.531 16.017,28.318 
		16.351,28.297 16.472,27.986 16.596,28.297 16.928,28.318 	"/>
	<polygon fill="#FFFFFF" points="19.801,28.609 19.888,28.936 19.604,28.758 19.322,28.936 19.405,28.609 19.15,28.398 
		19.482,28.379 19.606,28.068 19.728,28.379 20.063,28.398 	"/>
	<polygon fill="#FFFFFF" points="19.405,29.674 19.473,29.951 19.235,29.799 18.994,29.951 19.064,29.674 18.848,29.494 
		19.128,29.477 19.236,29.211 19.339,29.477 19.624,29.494 	"/>
	<path id="C_38_" fill="#FFFFFF" d="M20.959,30.742l0.098,0.385l-0.334-0.213l-0.338,0.213l0.103-0.385l-0.305-0.252l0.394-0.025
		l0.146-0.367l0.146,0.367l0.396,0.025L20.959,30.742z"/>
	<polygon fill="#FFFFFF" points="25.142,33.145 25.179,33.29 25.051,33.207 24.92,33.29 24.959,33.145 24.844,33.047 24.993,33.037 
		25.051,32.896 25.108,33.037 25.259,33.047 	"/>
	<polygon fill="#FFFFFF" points="25.277,26.869 25.357,27.193 25.076,27.016 24.793,27.193 24.877,26.869 24.62,26.656 
		24.954,26.637 25.076,26.328 25.199,26.637 25.532,26.656 	"/>
	<polygon fill="#FFFFFF" points="26.209,27.743 26.293,28.064 26.008,27.887 25.73,28.064 25.811,27.743 25.555,27.531 
		25.885,27.508 26.008,27.197 26.137,27.508 26.467,27.531 	"/>
	<polygon fill="#FFFFFF" points="24.537,28.375 24.589,28.581 24.406,28.468 24.229,28.581 24.282,28.375 24.118,28.24 
		24.33,28.227 24.406,28.027 24.486,28.227 24.7,28.24 	"/>
	<polygon fill="#FFFFFF" points="23.836,27.85 23.904,28.125 23.662,27.973 23.425,28.125 23.491,27.85 23.274,27.668 
		23.555,27.648 23.66,27.386 23.769,27.648 24.05,27.668 	"/>
	<polygon fill="#FFFFFF" points="25.255,29.857 25.351,30.242 25.018,30.031 24.685,30.242 24.783,29.857 24.477,29.605 
		24.872,29.578 25.018,29.211 25.163,29.578 25.561,29.605 	"/>
	<polygon fill="#FFFFFF" points="27.29,30.873 27.359,31.148 27.121,30.998 26.882,31.148 26.952,30.873 26.73,30.691 27.02,30.672 
		27.121,30.406 27.227,30.672 27.51,30.691 	"/>
	<polygon fill="#FFFFFF" points="28.161,32.143 28.244,32.466 27.96,32.286 27.673,32.466 27.759,32.143 27.501,31.93 
		27.835,31.908 27.96,31.598 28.079,31.908 28.414,31.93 	"/>
	<polygon fill="#FFFFFF" points="29.061,31.13 29.13,31.406 28.891,31.254 28.648,31.406 28.723,31.13 28.499,30.948 28.786,30.934 
		28.891,30.668 28.993,30.934 29.277,30.948 	"/>
	<polygon fill="#FFFFFF" points="30.275,32.953 30.346,33.23 30.105,33.078 29.867,33.23 29.938,32.953 29.717,32.773 
		30.001,32.754 30.105,32.492 30.212,32.754 30.499,32.773 	"/>
	<polygon fill="#FFFFFF" points="30.314,31.895 30.398,32.218 30.117,32.041 29.837,32.218 29.918,31.895 29.66,31.682 
		29.995,31.658 30.117,31.35 30.242,31.658 30.575,31.682 	"/>
	<polygon fill="#FFFFFF" points="30.262,30.895 30.329,31.168 30.09,31.016 29.848,31.168 29.921,30.895 29.699,30.711 
		29.982,30.693 30.09,30.428 30.193,30.693 30.479,30.711 	"/>
	<polygon fill="#FFFFFF" points="31.271,30.902 31.338,31.18 31.1,31.027 30.859,31.18 30.928,30.902 30.709,30.723 30.994,30.703 
		31.1,30.439 31.202,30.703 31.484,30.723 	"/>
	<polygon fill="#FFFFFF" points="32.25,30.482 32.332,30.805 32.052,30.627 31.768,30.805 31.852,30.482 31.598,30.27 31.928,30.25 
		32.052,29.938 32.176,30.25 32.506,30.27 	"/>
	<polygon fill="#FFFFFF" points="32.73,29.672 32.814,29.996 32.529,29.816 32.25,29.996 32.332,29.672 32.076,29.459 
		32.409,29.438 32.529,29.128 32.654,29.438 32.988,29.459 	"/>
	<polygon fill="#FFFFFF" points="32.366,28.682 32.463,29.064 32.129,28.854 31.794,29.064 31.896,28.682 31.591,28.43 
		31.98,28.402 32.129,28.035 32.275,28.402 32.671,28.43 	"/>
	<polygon fill="#FFFFFF" points="33.793,28.749 33.863,29.023 33.624,28.869 33.385,29.023 33.453,28.749 33.232,28.566 
		33.521,28.549 33.624,28.283 33.729,28.549 34.014,28.566 	"/>
	<path fill="#FFFFFF" d="M18.908,21.856c-1.259,0-2.494,0.095-3.7,0.279c0.147-0.502,0.332-0.991,0.557-1.463
		c1.032-0.125,2.078-0.192,3.144-0.192c5.903-0.004,11.629,2.026,16.212,5.75c-0.063,0.517-0.167,1.025-0.311,1.527
		C30.529,24.084,24.968,21.856,18.908,21.856L18.908,21.856z"/>
	<path fill="#009C37" d="M16.28,21.327c0.01,0.1,0.035,0.175,0.086,0.227c0.051,0.053,0.111,0.073,0.191,0.067
		c0.078-0.006,0.141-0.039,0.182-0.098c0.043-0.058,0.055-0.137,0.048-0.24c-0.005-0.103-0.038-0.173-0.089-0.225
		c-0.053-0.052-0.112-0.072-0.195-0.067c-0.083,0.005-0.139,0.039-0.179,0.1C16.283,21.15,16.273,21.228,16.28,21.327L16.28,21.327z
		 M16.09,21.342c-0.011-0.145,0.017-0.265,0.088-0.358c0.073-0.093,0.177-0.144,0.312-0.155c0.134-0.011,0.25,0.023,0.338,0.103
		s0.137,0.191,0.149,0.337c0.013,0.145-0.018,0.266-0.091,0.357c-0.073,0.092-0.177,0.147-0.311,0.157
		c-0.134,0.009-0.247-0.021-0.338-0.102C16.147,21.602,16.103,21.488,16.09,21.342L16.09,21.342z M17.565,21.173l0.222-0.008
		c0.05-0.001,0.084-0.014,0.106-0.033c0.024-0.02,0.032-0.051,0.029-0.092c-0.004-0.041-0.013-0.068-0.035-0.089
		c-0.021-0.021-0.058-0.028-0.098-0.026l-0.231,0.008L17.565,21.173L17.565,21.173z M17.397,21.691l-0.03-0.907l0.442-0.017
		c0.097-0.001,0.174,0.017,0.222,0.056c0.049,0.039,0.076,0.106,0.079,0.192c0.004,0.049-0.009,0.097-0.031,0.14
		c-0.022,0.039-0.055,0.064-0.099,0.08c0.041,0.011,0.069,0.033,0.086,0.063c0.016,0.029,0.028,0.072,0.035,0.134l0.003,0.106
		c0.003,0.058,0.016,0.091,0.041,0.102v0.029l-0.204,0.006c-0.008-0.012-0.011-0.028-0.018-0.046
		c-0.006-0.018-0.006-0.041-0.006-0.067l-0.008-0.094c-0.007-0.058-0.017-0.095-0.037-0.113c-0.021-0.018-0.053-0.028-0.104-0.026
		l-0.198,0.006l0.014,0.354L17.397,21.691L17.397,21.691z M18.739,21.487l0.151,0.003c0.088,0.001,0.151-0.02,0.188-0.065
		c0.036-0.045,0.063-0.117,0.063-0.22s-0.015-0.176-0.051-0.226c-0.037-0.049-0.091-0.073-0.168-0.075l-0.17-0.003L18.739,21.487
		L18.739,21.487L18.739,21.487z M18.554,21.647l0.02-0.91l0.354,0.006c0.137,0.004,0.24,0.043,0.308,0.121
		c0.066,0.078,0.101,0.191,0.097,0.343c-0.001,0.075-0.016,0.149-0.041,0.22c-0.029,0.063-0.067,0.112-0.111,0.15
		c-0.037,0.029-0.08,0.048-0.125,0.061c-0.065,0.013-0.131,0.018-0.197,0.014L18.554,21.647L18.554,21.647z M19.707,21.668
		l0.05-0.906l0.656,0.034l-0.006,0.159l-0.479-0.026l-0.008,0.194l0.436,0.021l-0.007,0.157l-0.437-0.024L19.9,21.512l0.5,0.028
		l-0.011,0.168L19.707,21.668L19.707,21.668z M20.775,21.731l0.098-0.906l0.277,0.031l0.102,0.707l0.252-0.671l0.274,0.031
		l-0.096,0.903l-0.172-0.018l0.078-0.729l-0.262,0.709l-0.192-0.019l-0.105-0.748l-0.08,0.727L20.775,21.731L20.775,21.731z
		 M23.186,22.042l0.187-0.891l0.648,0.14l-0.035,0.155l-0.464-0.102l-0.04,0.191l0.428,0.091l-0.035,0.152l-0.424-0.09l-0.048,0.227
		l0.484,0.104l-0.033,0.164L23.186,22.042L23.186,22.042z M25.587,22.098l0.177,0.048c0.045,0.011,0.086,0.009,0.107-0.004
		c0.023-0.013,0.048-0.042,0.061-0.088c0.014-0.045,0.01-0.075-0.007-0.104c-0.016-0.029-0.043-0.045-0.084-0.056l-0.187-0.05
		L25.587,22.098L25.587,22.098z M25.547,22.256l-0.084,0.312l-0.183-0.047l0.24-0.879l0.39,0.104
		c0.093,0.026,0.153,0.069,0.188,0.129c0.034,0.06,0.041,0.137,0.016,0.23c-0.024,0.092-0.063,0.153-0.125,0.19
		c-0.067,0.037-0.146,0.044-0.221,0.02L25.547,22.256L25.547,22.256z M26.641,22.4l0.209,0.063c0.043,0.015,0.08,0.015,0.108,0.003
		c0.026-0.011,0.045-0.038,0.058-0.078c0.014-0.04,0.014-0.069-0.006-0.095c-0.018-0.026-0.044-0.045-0.085-0.059l-0.217-0.069
		L26.641,22.4L26.641,22.4z M26.311,22.833l0.266-0.869L27,22.093c0.092,0.029,0.156,0.069,0.191,0.126
		c0.035,0.057,0.035,0.124,0.01,0.208c-0.018,0.053-0.042,0.095-0.074,0.122c-0.031,0.028-0.072,0.043-0.117,0.043
		c0.034,0.024,0.055,0.053,0.061,0.086c0.007,0.033,0.004,0.079-0.01,0.137l-0.028,0.103c-0.019,0.057-0.019,0.091,0.004,0.11
		l-0.007,0.025l-0.199-0.058c-0.005-0.015-0.005-0.033,0-0.051l0.013-0.067l0.024-0.091c0.02-0.054,0.02-0.094,0.003-0.119
		c-0.015-0.024-0.038-0.044-0.088-0.059l-0.187-0.057l-0.104,0.338L26.311,22.833L26.311,22.833z M27.695,22.831
		c-0.035,0.093-0.041,0.173-0.022,0.24c0.028,0.068,0.073,0.116,0.149,0.14c0.076,0.025,0.146,0.025,0.203-0.011
		c0.058-0.036,0.111-0.103,0.145-0.198c0.035-0.095,0.04-0.173,0.018-0.241c-0.025-0.069-0.07-0.113-0.147-0.142
		c-0.076-0.03-0.14-0.021-0.204,0.014C27.771,22.669,27.729,22.736,27.695,22.831L27.695,22.831z M27.516,22.764
		c0.049-0.139,0.129-0.232,0.23-0.286c0.104-0.054,0.225-0.058,0.352-0.011c0.127,0.048,0.213,0.125,0.258,0.233
		c0.047,0.109,0.045,0.232-0.006,0.369c-0.037,0.124-0.121,0.228-0.236,0.289c-0.107,0.054-0.235,0.058-0.348,0.011
		c-0.125-0.049-0.214-0.126-0.259-0.236C27.461,23.023,27.464,22.903,27.516,22.764L27.516,22.764z M29.193,23.832
		c-0.047,0.029-0.101,0.045-0.144,0.048c-0.045,0.003-0.103-0.009-0.155-0.03c-0.108-0.043-0.191-0.132-0.229-0.242
		c-0.038-0.111-0.033-0.234,0.024-0.366c0.058-0.132,0.14-0.226,0.242-0.274c0.104-0.049,0.225-0.049,0.346,0.003
		c0.104,0.045,0.178,0.106,0.224,0.186c0.046,0.081,0.054,0.164,0.026,0.256l-0.17-0.074c0.006-0.049,0-0.09-0.021-0.128
		c-0.031-0.039-0.072-0.069-0.118-0.088c-0.067-0.028-0.134-0.026-0.198,0.007c-0.063,0.032-0.107,0.096-0.146,0.188
		c-0.038,0.092-0.051,0.17-0.031,0.24c0.017,0.069,0.063,0.117,0.144,0.149c0.05,0.022,0.103,0.026,0.156,0.011
		c0.055-0.018,0.09-0.053,0.117-0.105l-0.185-0.078l0.062-0.146l0.346,0.149l-0.192,0.451l-0.116-0.049L29.193,23.832L29.193,23.832
		z M30.063,23.809l0.195,0.097c0.041,0.021,0.078,0.026,0.104,0.021c0.027-0.005,0.056-0.031,0.07-0.068
		c0.019-0.038,0.022-0.069,0.014-0.097c-0.01-0.028-0.035-0.049-0.075-0.07l-0.204-0.1L30.063,23.809L30.063,23.809z M29.669,24.183
		l0.399-0.813l0.392,0.191c0.093,0.045,0.147,0.096,0.169,0.154c0.023,0.059,0.021,0.127-0.02,0.205
		c-0.023,0.049-0.055,0.086-0.094,0.109s-0.08,0.033-0.121,0.023c0.026,0.031,0.041,0.063,0.045,0.095
		c0.002,0.032-0.008,0.078-0.033,0.134l-0.045,0.1c-0.022,0.051-0.028,0.086-0.014,0.105l-0.013,0.028l-0.183-0.091
		c0-0.016,0-0.033,0.007-0.05c0.007-0.022,0.017-0.044,0.024-0.065l0.039-0.086c0.022-0.051,0.031-0.09,0.022-0.117
		c-0.011-0.025-0.035-0.049-0.08-0.071l-0.179-0.086l-0.153,0.316L29.669,24.183L29.669,24.183z M30.684,24.705l0.441-0.791
		l0.579,0.318l-0.083,0.139l-0.413-0.232l-0.095,0.168l0.381,0.213l-0.077,0.135l-0.38-0.21l-0.111,0.204l0.434,0.243l-0.078,0.144
		L30.684,24.705L30.684,24.705z M31.711,24.988l0.157,0.095c-0.021,0.047-0.022,0.089-0.009,0.128
		c0.019,0.039,0.056,0.071,0.104,0.105c0.052,0.035,0.091,0.041,0.125,0.039c0.033-0.002,0.06-0.021,0.079-0.053
		c0.03-0.047-0.018-0.127-0.132-0.238c-0.083-0.078-0.121-0.125-0.144-0.164c-0.019-0.04-0.022-0.07-0.021-0.108
		s0.019-0.078,0.042-0.119c0.041-0.075,0.105-0.117,0.182-0.128c0.076-0.009,0.159,0.018,0.258,0.074
		c0.101,0.057,0.15,0.117,0.176,0.193c0.025,0.074,0.016,0.149-0.032,0.23l-0.149-0.094c0.02-0.037,0.021-0.075,0.006-0.113
		c-0.018-0.037-0.043-0.066-0.095-0.096c-0.048-0.029-0.079-0.035-0.11-0.035c-0.032,0-0.057,0.02-0.075,0.051
		c-0.026,0.041,0,0.098,0.075,0.172c0.024,0.018,0.037,0.037,0.047,0.049l0.102,0.104l0.049,0.064
		c0.021,0.037,0.029,0.076,0.027,0.113c-0.001,0.037-0.016,0.078-0.04,0.119c-0.046,0.08-0.114,0.127-0.192,0.14
		c-0.078,0.012-0.174-0.015-0.271-0.072c-0.097-0.06-0.161-0.128-0.188-0.206C31.652,25.16,31.661,25.073,31.711,24.988
		L31.711,24.988z M32.664,25.588l0.152,0.104c-0.021,0.043-0.024,0.086-0.012,0.125c0.01,0.039,0.047,0.076,0.104,0.111
		c0.043,0.031,0.08,0.045,0.115,0.045c0.033,0,0.059-0.018,0.082-0.049c0.031-0.045-0.01-0.127-0.121-0.244
		c-0.053-0.051-0.098-0.109-0.133-0.172c-0.016-0.037-0.02-0.072-0.016-0.111c0.008-0.043,0.025-0.082,0.053-0.115
		c0.047-0.074,0.109-0.113,0.188-0.119c0.076-0.004,0.158,0.023,0.255,0.088c0.092,0.063,0.14,0.127,0.162,0.202
		c0.024,0.074,0.012,0.15-0.04,0.23l-0.146-0.103c0.024-0.04,0.024-0.075,0.018-0.111c-0.018-0.036-0.045-0.07-0.096-0.103
		c-0.037-0.025-0.076-0.041-0.104-0.039c-0.031,0.001-0.058,0.016-0.081,0.046c-0.027,0.039-0.003,0.097,0.07,0.175l0.039,0.049
		l0.099,0.11c0.021,0.024,0.033,0.046,0.044,0.069c0.018,0.037,0.029,0.074,0.021,0.113s-0.019,0.076-0.041,0.115
		c-0.055,0.078-0.121,0.123-0.205,0.131c-0.084,0.01-0.17-0.021-0.268-0.087c-0.1-0.063-0.156-0.137-0.176-0.217
		S32.615,25.669,32.664,25.588L32.664,25.588z M33.818,26.2c-0.062,0.079-0.09,0.153-0.09,0.226c0,0.073,0.035,0.131,0.104,0.18
		c0.068,0.047,0.13,0.064,0.197,0.047c0.07-0.018,0.134-0.064,0.197-0.146c0.062-0.081,0.09-0.155,0.086-0.226
		s-0.037-0.131-0.103-0.18c-0.063-0.05-0.131-0.064-0.196-0.047C33.949,26.072,33.88,26.117,33.818,26.2L33.818,26.2z
		 M33.669,26.084c0.086-0.117,0.188-0.186,0.308-0.205c0.121-0.018,0.229,0.01,0.334,0.092c0.107,0.084,0.17,0.18,0.183,0.299
		s-0.029,0.234-0.115,0.354c-0.069,0.104-0.183,0.178-0.308,0.203c-0.113,0.021-0.228-0.011-0.338-0.093
		c-0.107-0.082-0.166-0.182-0.178-0.299C33.545,26.316,33.58,26.201,33.669,26.084L33.669,26.084z"/>
</g>
<g>
	<g>
		<g>
			<g>
				<defs>
					<circle id="SVGID_1_" cx="25" cy="25" r="24.5"/>
				</defs>
				<clipPath id="SVGID_2_">
					<use xlink:href="#SVGID_1_"  overflow="visible"/>
				</clipPath>
				
					<radialGradient id="circle50_2_" cx="750.7598" cy="1657.9609" r="27.4688" gradientTransform="matrix(1 0 0 1 -725.7598 -1632.9609)" gradientUnits="userSpaceOnUse">
					<stop  offset="0" style="stop-color:#000000;stop-opacity:0"/>
					<stop  offset="0.7576" style="stop-color:#000000;stop-opacity:0"/>
					<stop  offset="1" style="stop-color:#000000"/>
				</radialGradient>
				
					<circle id="circle50_1_" opacity="0.4" clip-path="url(#SVGID_2_)" fill="url(#circle50_2_)" enable-background="new    " cx="25" cy="25" r="27.469"/>
			</g>
		</g>
	</g>
	<g>
		<g>
			<g>
				<defs>
					<circle id="SVGID_3_" cx="25" cy="25" r="24.5"/>
				</defs>
				<clipPath id="SVGID_4_">
					<use xlink:href="#SVGID_3_"  overflow="visible"/>
				</clipPath>
				
					<radialGradient id="circle50_3_" cx="750.7598" cy="1657.9609" r="31.6777" gradientTransform="matrix(1 0 0 1 -725.7598 -1632.9609)" gradientUnits="userSpaceOnUse">
					<stop  offset="0" style="stop-color:#000000;stop-opacity:0"/>
					<stop  offset="0.5758" style="stop-color:#000000;stop-opacity:0"/>
					<stop  offset="1" style="stop-color:#000000"/>
				</radialGradient>
				
					<circle id="circle50_7_" opacity="0.6" clip-path="url(#SVGID_4_)" fill="url(#circle50_3_)" enable-background="new    " cx="25" cy="25" r="31.678"/>
			</g>
		</g>
	</g>
</g>
<linearGradient id="SVGID_5_" gradientUnits="userSpaceOnUse" x1="750.4824" y1="1663.666" x2="750.4824" y2="1635.6641" gradientTransform="matrix(1 0 0 1 -725.7598 -1632.9609)">
	<stop  offset="0.0727" style="stop-color:#FFFFFF;stop-opacity:0.05"/>
	<stop  offset="0.897" style="stop-color:#FFFFFF;stop-opacity:0.75"/>
	<stop  offset="1" style="stop-color:#FFFFFF;stop-opacity:0.75"/>
</linearGradient>
<ellipse fill="url(#SVGID_5_)" cx="24.723" cy="16.704" rx="17.306" ry="14.001"/>
</svg>
